<?xml version="1.0" encoding="UTF-8"?><svg id="Layer_2" xmlns="http://www.w3.org/2000/svg" viewBox="0 0 451.67 206.75"><g id="Layer_1-2"><path d="m57.71,195.96c-3.87-1.25-6.6-3.3-10.36-8.54-1.83-2.57-3.19-4.64-4.48-6.37,10.03-5.21,19.28-17.51,19.28-33.81,0-20.94-12.75-28.91-24.36-28.91-5.73,0-10.44,1.87-13.93,4.75-.02-.03-.05-.05-.07-.08-1.37-1.37-4.78-1.59-8.42,1.59-8.99,7.97-15.37,23.56-15.37,41.09,0,28.12,15.25,40.98,28.23,40.98,7.34,0,14.37-2.25,18.96-7.05,2.28,2.85,4.62,5.08,7.22,6.14,5.35,2.16,8.65.46,9.45-1.71.8-2.28-1.37-6.6-6.15-8.08Zm-28.68,4.1c-9.68,0-21.29-11.16-21.29-32.78,0-13.32,3.22-23.19,9.26-30.92-.85,10.41,5.61,17.81,11.46,19.65,4.21,1.37,8.2-.11,8.88-3.53.46-2.28-.68-5.81-5.81-5.81-4.44,0-8.08-4.89-7.29-11.04.91-6.83,6.49-10.47,12.98-10.47,8.42,0,17.19,7.63,17.19,21.4s-6.93,25.37-16.92,29.27c-1.2-.77-2.62-1.48-4.36-2.18-5.24-2.05-10.59-1.14-11.72,2.05-1.37,3.87,3.53,8.08,11.27,8.08.65,0,1.32-.04,1.99-.12,2.74,1.7,4.48,4.31,6.77,7.86.64.94,1.27,1.87,1.89,2.79-4.13,4.1-8.33,5.75-14.3,5.75Z"/><path d="m436.42,154.41c-10.24-7.63-15.71-10.59-15.71-18.78,0-6.49,5.24-10.47,11.27-10.47,7.06,0,10.36,4.21,10.36,8.2,0,3.53-1.59,5.46-4.55,7.51-2.05,1.37-2.73,4.33-1.25,6.26,1.48,2.05,4.67,2.5,7.17.8,3.98-2.62,6.37-7.4,6.37-14,0-8.42-6.94-15.59-17.87-15.59-10.36,0-19.69,6.83-19.69,17.53,0,9.9,6.94,15.82,15.48,21.86,10.93,7.74,15.37,12.75,15.37,22.42,0,10.47-7.63,19.35-17.76,19.35s-16.39-7.74-16.39-17.42c0-8.88,5.12-12.98,9.68-13.55,3.53-.46,5.92,1.48,6.15,3.76.34,2.5-.91,3.64-2.39,6.03s-1.25,5.24.23,6.6c1.82,1.59,5.69.68,7.97-2.05,2.85-3.3,3.64-8.08,2.05-12.41-1.37-3.76-5.81-9.45-14.68-8.76-8.99.68-17.3,8.65-17.3,20.6,0,13.09,10.47,24.36,24.13,24.36,16.05,0,26.64-12.07,26.64-26.18,0-13.09-6.94-19.81-15.25-26.07Z"/><path d="m115.65,119.35c-2.73-1.71-5.81-.11-7.51,3.07-3.3,6.26-4.67,16.16-5.35,25.73-.69,10.32-.59,21.88-.05,31.83-5.51,12.52-11.98,19.85-19.42,19.85-6.83,0-10.93-6.37-8.31-15.03,2.96-9.9,5.81-21.29,6.83-40.52.46-8.76.57-15.25-.68-19.01-.91-2.73-4.1-4.55-6.72-3.64-2.62.91-3.64,3.53-2.85,6.49,1.02,3.98,2.05,7.74,2.28,13.2.68,19.35-2.05,28.12-6.83,43.03-4.1,13.09,4.67,22.31,15.25,22.31,9.37,0,16.13-4.8,21.41-14.49.18,1.62.37,3.12.56,4.47.91,6.26,3.64,10.02,7.06,10.02,2.62,0,4.1-4.21,3.41-8.42-.57-3.41-2.28-8.08-3.41-13.09-2.73-12.07-2.28-26.52-1.25-35.86.91-8.76,2.39-15.94,6.26-21.74,1.94-3.07,1.82-6.6-.68-8.2Z"/><path d="m158.79,148.27c-2.73,1.02-3.64,3.98-2.96,5.92,1.14,3.53,5.01,4.1,8.08,2.62,6.37-3.19,10.59-9.9,10.59-18.1,0-11.38-8.88-20.38-22.54-20.38s-25.73,9.9-25.73,25.27c0,7.12,3.21,13.81,7.71,18.46-6.91,3.91-12.49,11.16-12.49,21.72,0,13.43,10.36,22.88,21.63,22.88,13.77,0,21.17-10.93,21.74-20.15.34-6.15-1.14-10.59-3.53-13.2-2.62-2.96-6.49-3.87-8.2-2.28-2.5,2.39-1.14,7.06,1.37,8.99,1.82,1.48,2.39,3.87,2.39,6.83,0,6.94-5.69,12.64-13.55,12.64s-13.66-6.83-13.66-15.71c0-7.3,3.9-13.91,11.82-16.44,1.86.77,3.75,1.19,5.6,1.19,4.33,0,7.51-2.16,7.51-5.12,0-2.73-2.96-4.78-7.97-4.78-1.46,0-2.97.15-4.49.43-4.83-2.89-7.69-8.94-7.69-16.37,0-8.88,7.29-17.42,17.53-17.42,8.99,0,14.57,6.26,14.57,12.29,0,5.46-2.62,8.88-7.74,10.7Z"/><path d="m393.81,188.09c-1.53-14.33.53-30.62,2.08-40.84,1.37-9.11,3.76-14,7.17-19.12,2.16-3.3,3.07-7.97.57-9.33-2.16-1.25-7.06.34-9.79,5.58-2.85,5.46-3.98,11.38-5.24,20.72-.8,6.49-1.79,16.17-2.49,25.73-5.95-11.23-14.05-23.26-23.46-33.36-.33-5.19-1.08-9.89-2.63-13.31-1.59-3.19-4.89-4.67-7.85-2.96-2.62,1.48-2.85,5.01-1.02,8.08,3.41,5.81,3.87,12.64,4.44,21.51.57,9.33.23,22.77-2.39,34.38-1.14,5.01-2.39,9.68-2.96,13.09-.68,4.21.68,8.42,2.96,8.42,3.41,0,6.15-3.76,7.06-10.02,1.59-10.7,2.39-28.12,2.62-46.78,0-.55.01-1.1.02-1.65,10.12,12.12,18.32,25.61,22.42,38.15-.11,4.76-.03,8.85.33,11.65.68,5.24,3.53,8.65,6.49,8.65,2.39,0,5.24-2.5,4.33-8.54-.43-2.87-1.34-6.27-2.65-10.04Z"/><path d="m206.6,154.41c-10.24-7.63-15.71-10.59-15.71-18.78,0-6.49,5.24-10.47,11.27-10.47,7.06,0,10.36,4.21,10.36,8.2,0,3.53-1.59,5.46-4.55,7.51-2.05,1.37-2.73,4.33-1.25,6.26,1.48,2.05,4.67,2.5,7.17.8,3.98-2.62,6.37-7.4,6.37-14,0-8.42-6.94-15.59-17.87-15.59-10.36,0-19.69,6.83-19.69,17.53,0,9.9,6.94,15.82,15.48,21.86,10.93,7.74,15.37,12.75,15.37,22.42,0,10.47-7.63,19.35-17.76,19.35s-16.39-7.74-16.39-17.42c0-8.88,5.12-12.98,9.68-13.55,3.53-.46,5.92,1.48,6.15,3.76.34,2.5-.91,3.64-2.39,6.03s-1.25,5.24.23,6.6c1.82,1.59,5.69.68,7.97-2.05,2.85-3.3,3.64-8.08,2.05-12.41-1.37-3.76-5.81-9.45-14.68-8.76-8.99.68-17.3,8.65-17.3,20.6,0,13.09,10.47,24.36,24.13,24.36,16.05,0,26.64-12.07,26.64-26.18,0-13.09-6.94-19.81-15.25-26.07Z"/><path d="m322.14,118.33c-19.58,0-29.94,24.93-29.94,47.47,0,27.32,10.36,40.86,24.36,40.86s23.9-14.46,23.9-38.7c0-16.05-6.72-32.1-19.46-32.1-8.2,0-14.34,6.72-15.71,15.25-.68,4.78,1.37,6.83,2.96,7.17,1.82.34,4.44-1.48,5.46-3.87.91-2.05,1.14-4.55,1.94-6.94.8-2.5,2.62-4.55,5.46-4.55,5.81,0,10.81,11.04,10.81,24.59,0,20.15-7.17,31.99-15.71,31.99-7.63,0-16.05-11.27-16.05-33.47,0-18.44,7.74-40.86,21.97-40.86,5.81,0,8.99,4.89,11.38,10.93,1.37,3.3,3.41,5.12,6.15,4.33,2.5-.8,3.87-4.33,2.05-8.54-2.39-6.15-9.45-13.55-19.58-13.55Z"/><path d="m280.13,118.44c-3.98,0-6.37,1.59-9.11,3.41-3.07,1.94-6.49,3.53-12.52,3.53-4.78,0-19.69-1.94-25.04-2.85-6.03-1.02-9.68,1.59-9.68,5.01,0,2.85,2.28,4.89,5.69,4.89,2.85,0,5.01-1.71,8.54-2.05,1.13-.13,2.65-.13,4.38-.07-1.76,4.72-3.64,12.6-3.35,21.47.46,15.48,6.6,26.52,6.6,38.82,0,6.6-3.3,9.22-6.03,9.22s-4.33-1.82-3.98-5.12c.23-3.3-2.73-5.12-5.24-4.67-3.98.57-4.33,5.01-3.64,7.63,1.25,5.12,6.49,8.99,11.27,8.99,8.42,0,14.8-6.26,14.8-17.07,0-11.61-6.15-17.3-6.15-37.79,0-11.23,4.1-16.4,4.88-20.82,3.8.34,7.33.67,9.23.67,10.93,0,25.16-3.07,25.16-9.68,0-2.16-2.28-3.53-5.81-3.53Z"/><path d="m278.99,143.71c.46-2.73-1.37-5.69-4.33-5.69-3.53,0-6.26,3.3-6.26,12.64,0,18.67,7.85,27.43,7.85,39.5,0,6.03-3.07,9.68-6.37,9.68-2.16,0-3.41-1.82-3.64-3.87-.34-2.5-2.85-4.44-5.69-3.3s-3.3,5.12-2.05,7.85c1.59,3.53,5.58,6.15,10.7,6.15,7.85,0,13.89-6.15,13.89-16.51,0-11.95-6.49-15.59-6.49-35.51,0-4.55,1.82-7.97,2.39-10.93Z"/><path d="m386.24,72.69c-2.39-.91-5.46,0-6.15,3.76-.46,2.96-1.48,5.35-3.98,5.35-5.81,0-8.65-10.93-10.24-21.63-1.03-7.04-4-11.52-7.56-14.28,11.92-5.51,20.76-15.01,20.76-27.84,0-11.72-7.97-17.76-22.42-17.76-3.96,0-8.53.93-13.15,2.71-1.3-2.33-3.68-3.63-6.43-2.71-2.6.98-3.55,4.13-2.55,7.28-7.45,4.8-13.99,11.84-16.91,20.72-1.59,4.89-.68,8.65,1.59,9.33,2.85.8,5.92-1.59,6.6-5.01.57-3.07,1.14-4.89,3.53-9.45,1.62-3.02,4.2-5.97,7.34-8.5,1.5,6.21,1.93,12.46,1.42,20.45-.13,1.93-.26,3.73-.41,5.4-6.52.34-9.6,2.59-9.6,5.42s3.08,5.28,8.26,5.29c-1.09,6.26-2.47,10.12-4.05,14.18-2.73,7.06-6.6,10.93-8.99,14.46s-1.94,7.97.34,8.65c3.3.91,7.63-1.25,11.61-8.08,4.04-6.84,6.71-18.89,8.39-30.01,1.26-.22,2.51-.48,3.75-.78,1.76.53,3.19,1.14,4.25,1.76,3.3,1.94,5.58,5.46,6.83,11.16,2.05,9.45,3.53,15.25,6.83,20.03,2.39,3.53,6.72,6.03,11.27,6.03,4.89,0,9.45-2.62,11.72-6.6,2.05-3.64,1.25-8.08-2.05-9.33Zm-30.05-65.57c10.13,0,14.91,5.01,14.91,11.5,0,9.22-6.58,18.3-21.57,23.21-1.51-.41-3.08-.73-4.65-.96.19-1.66.35-3.24.49-4.73.94-9.95,1.1-18.97-.15-26.62,3.55-1.51,7.32-2.41,10.96-2.41Z"/><path d="m294.15.3c-19.58,0-29.94,24.93-29.94,47.47,0,27.32,10.36,40.86,24.36,40.86s23.9-14.46,23.9-38.7c0-16.05-6.72-32.1-19.46-32.1-8.2,0-14.34,6.72-15.71,15.25-.68,4.78,1.37,6.83,2.96,7.17,1.82.34,4.44-1.48,5.46-3.87.91-2.05,1.14-4.55,1.94-6.94.8-2.5,2.62-4.55,5.46-4.55,5.81,0,10.81,11.04,10.81,24.59,0,20.15-7.17,31.99-15.71,31.99-7.63,0-16.05-11.27-16.05-33.47,0-18.44,7.74-40.86,21.97-40.86,5.81,0,8.99,4.89,11.38,10.93,1.37,3.3,3.41,5.12,6.15,4.33,2.5-.8,3.87-4.33,2.05-8.54-2.39-6.15-9.45-13.55-19.58-13.55Z"/><path d="m260.23.75c-2.16-1.25-7.06.34-9.79,5.58-2.85,5.46-3.98,11.38-5.24,20.72-.8,6.49-1.79,16.17-2.49,25.73-6.06-11.44-14.36-23.73-24-33.94-.38-4.96-1.16-9.44-2.65-12.73-1.59-3.19-4.89-4.67-7.85-2.96-2.62,1.48-2.85,5.01-1.02,8.08,3.41,5.81,3.87,12.63,4.44,21.51.57,9.33.23,22.77-2.39,34.38-1.14,5.01-2.39,9.68-2.96,13.09-.68,4.21.68,8.42,2.96,8.42,3.41,0,6.15-3.76,7.06-10.02,1.59-10.7,2.5-28.12,2.73-46.78,0-.73.01-1.46.02-2.19,10.33,12.26,18.71,25.96,22.87,38.69-.11,4.76-.03,8.85.33,11.65.68,5.24,3.53,8.65,6.49,8.65,2.39,0,5.24-2.5,4.33-8.54-.44-2.88-1.35-6.3-2.67-10.09-1.55-14.32.44-30.59,1.99-40.79,1.37-9.11,3.87-14,7.29-19.12,2.16-3.3,3.07-7.97.57-9.33Z"/><path d="m166.21,74.17c-2.5-1.25-4.44.23-5.46,1.82-1.37,2.05-1.71,5.81-4.33,5.81-3.19,0-4.67-6.03-5.24-15.03-.91-13.09.8-27.32,5.92-40.18,2.96-7.29,4.55-8.76,7.29-10.36,2.05-1.14,1.25-3.98-2.16-6.72-2.62-2.05-5.46-2.39-6.6-1.25s-1.14,3.64-5.69,8.42c-8.41,8.84-17.02,19.26-23.26,30.28-3.14-11.32-9.17-21.93-16.88-31.56-1.14-8.55-4.81-15.11-13.36-15.11-9.68,0-21.97,10.7-23.9,18.33-1.48,5.92.34,9.79,3.41,11.84,3.87,2.62,10.81,2.39,14.57.11,4.21-2.5,3.87-6.15,2.39-8.08-1.59-1.94-4.21-1.82-6.49-.57-2.73,1.59-7.29,3.07-6.72-1.82,1.02-6.6,10.24-13.55,15.59-13.55,8.65,0,8.76,11.38,7.17,25.27-1.94,16.96-5.46,27.43-8.99,33.12-3.87,6.37-6.94,9.9-12.63,13.32-4.1,2.5-6.49,5.46-5.69,7.85s4.78,3.64,9.56,1.59c5.01-2.16,9.56-7.4,13.89-15.14,5.01-8.99,9.11-21.06,11.16-41.77.09-.88.17-1.77.23-2.66,5.7,8.57,10.21,18.39,11.3,30.1-2.15,5.58-3.52,11.23-3.79,16.84-.23,5.46,1.59,8.54,3.87,8.76,2.62.23,5.81-3.19,6.83-9.56.8-4.76,1.02-9.45.73-14.04,4-11.23,10.43-20.31,18.62-29.33-3.76,14.11-4.21,27.89-2.85,39.16,1.37,11.04,4.89,18.55,12.75,18.55,3.53,0,7.85-1.71,10.36-6.26,1.59-2.85,1.59-6.6-1.59-8.2Z"/><path d="m199.11,2.8c-2.73,0-5.58,1.82-7.74,2.85-2.85,1.37-4.55,2.28-13.43,2.28-6.26,0-10.02,3.87-11.72,8.31-1.82,4.55-2.05,8.76-.91,11.72,1.14,3.19,4.44,4.67,6.94,3.41,2.05-1.14,2.85-3.87,1.82-6.15-.8-1.94-1.37-3.87-1.02-6.49.57-3.98,3.53-5.35,7.74-5.01,1.13.09,2.15.16,3.11.21-1.83,5.49-3.33,15.09-2.09,25.06,1.71,13.89,8.65,22.99,8.65,32.55,0,8.54-3.19,10.24-5.81,10.24s-4.1-1.37-3.98-5.12-3.53-5.69-6.49-4.21c-2.73,1.25-3.07,4.55-2.05,7.85,1.71,5.81,6.94,8.31,11.61,8.31,7.85,0,13.89-5.69,13.89-16.39,0-11.72-7.51-19.24-8.42-34.26-.73-11.62,2.71-17.75,3.84-24.01.12,0,.25,0,.37-.01,5.35-.11,10.81-3.87,10.81-7.85,0-1.48-2.05-3.3-5.12-3.3Z"/></g></svg>