<svg width="1017" height="454" viewBox="0 0 1017 454" fill="none" xmlns="http://www.w3.org/2000/svg">
<path d="M705.347 29.5783C700.277 17.1683 683.557 1.45825 656.957 1.45825C609.837 1.45825 588.807 60.7382 588.807 107.108C588.807 168.668 616.677 198.058 642.517 198.058C672.417 198.058 695.977 163.858 695.467 111.918C694.957 76.1982 679.507 40.4783 654.927 40.4783C634.657 40.4783 625.537 53.9082 622.247 66.3182C619.207 77.9682 622.757 85.3182 627.317 86.3282C633.147 87.5982 639.477 81.5182 642.517 71.8882C644.287 65.0482 644.797 57.1983 652.647 57.1983C667.597 57.1983 677.987 80.7582 677.727 110.908C677.217 153.218 665.317 182.858 641.747 182.858C625.277 182.858 606.527 157.518 606.527 107.608C606.527 66.3082 621.727 16.6583 653.397 16.6583C668.847 16.6583 679.747 21.7283 685.827 40.4683C688.357 48.0682 694.437 52.3783 700.517 50.5983C706.847 48.5683 709.887 40.7183 705.327 29.5683L705.347 29.5783Z" fill="black"/>
<path d="M863.697 164.108C859.137 161.828 852.297 162.588 849.257 170.188C846.217 177.538 841.907 182.858 837.097 182.858C832.027 182.858 828.487 178.048 824.937 170.188C821.387 162.328 819.867 151.948 817.087 135.988C814.567 121.388 808.037 111.168 799.007 104.208C827.577 91.8383 845.967 69.9683 845.967 43.0083C845.967 18.4283 829.247 1.45829 796.567 1.45829C787.697 1.45829 777.317 3.50829 766.757 7.42829C763.857 2.28829 758.577 -0.571713 752.477 1.45829C746.817 3.57829 744.667 10.3183 746.657 17.1683C728.937 27.9483 713.267 43.9783 706.627 64.2883C703.337 74.1683 706.377 81.7683 711.697 82.7783C717.267 84.0483 723.857 78.7283 726.647 67.0683C729.947 53.4183 739.627 41.6183 751.377 32.7383C754.807 46.9383 755.717 61.2283 754.767 78.9683C754.517 82.9583 754.157 87.0283 753.697 91.1283C742.437 90.9383 733.477 94.2383 732.477 101.268C731.367 109.038 738.047 114.478 749.947 114.848C747.337 127.628 743.917 139.518 740.077 148.648C734.507 162.078 726.397 171.698 721.077 179.558C715.757 187.418 716.767 197.288 721.837 198.808C729.187 200.838 738.807 196.018 747.677 180.818C756.487 165.898 763.147 138.958 767.047 113.278C770.777 112.688 774.417 111.968 777.957 111.118C789.167 114.868 796.767 123.058 799.357 138.758C803.407 163.338 808.727 179.298 815.067 187.148C821.657 195.508 829.507 198.038 838.877 198.038C849.007 198.038 861.167 193.478 866.997 183.348C871.807 174.738 869.527 166.878 863.707 164.098L863.697 164.108ZM796.047 15.3883C819.607 15.3883 828.227 29.3183 828.227 44.2683C828.227 68.2283 811.127 85.4183 777.817 94.2383C775.157 93.5383 772.417 92.9783 769.617 92.5183C770.127 87.2983 770.487 82.3183 770.707 77.7083C771.757 57.5083 772.977 38.3683 770.467 21.5683C779.587 17.5783 788.637 15.3783 796.047 15.3783V15.3883Z" fill="black"/>
<path d="M580.447 2.46826C575.637 -0.321738 564.737 3.22826 558.657 14.8783C552.327 27.0383 549.787 40.2183 547.007 60.9883C545.237 75.4283 543.017 96.9883 541.467 118.248C528.157 93.1083 509.967 66.1383 488.877 43.5783C487.877 32.4883 485.927 22.4683 482.407 14.8783C478.857 7.78826 472.277 4.23826 465.937 7.78826C460.107 11.0783 459.607 18.9383 463.657 25.7783C471.257 38.6983 472.267 53.8983 473.537 73.6583C474.807 94.4283 474.047 124.328 468.217 150.168C465.687 161.318 462.897 171.698 461.627 179.308C460.107 188.678 463.147 198.058 468.217 198.058C475.817 198.058 481.897 189.698 483.927 175.768C487.477 151.958 489.247 113.188 489.757 71.6383C489.767 70.4083 489.777 69.1783 489.787 67.9583C512.327 94.9483 530.557 124.958 539.687 152.868C539.437 163.468 539.617 172.578 540.427 178.808C541.947 190.458 548.277 198.058 554.867 198.058C560.187 198.058 566.517 192.488 564.497 179.058C563.527 172.678 561.517 165.108 558.597 156.718C555.187 124.828 559.787 88.5583 563.237 65.8183C566.277 45.5483 571.597 34.6583 579.197 23.2583C584.007 15.9083 586.037 5.52826 580.467 2.48826L580.447 2.46826Z" fill="black"/>
<path d="M366.877 165.378C361.307 162.588 356.747 165.628 354.467 169.178C351.427 173.738 350.917 182.858 345.097 182.858C331.417 182.858 326.097 165.378 324.577 142.318C323.057 117.488 331.167 82.0182 341.297 59.4683C348.647 43.5083 352.947 41.9883 359.027 38.4383C363.587 35.9083 361.057 29.0683 354.977 24.7583C347.887 19.4383 342.567 19.6883 340.537 22.4783C337.497 26.5283 335.467 29.3183 320.777 42.9983C306.727 55.8383 284.767 80.5583 268.617 108.628C262.157 77.8983 248.737 48.6383 231.297 30.4883C228.627 13.7583 221.247 1.45825 204.987 1.45825C180.157 1.45825 151.267 23.2483 147.977 44.5283C145.697 57.6982 150.257 64.7982 159.377 70.1182C165.457 73.6683 179.387 75.1882 188.767 69.3582C197.637 64.0382 198.647 54.6683 193.837 50.8683C189.787 47.5783 184.467 48.3383 179.397 51.1183C173.317 54.6683 163.187 54.9183 164.447 44.0283C166.727 29.3383 187.247 15.3983 199.157 15.3983C218.407 15.3983 218.157 40.7382 214.357 71.6382C209.797 108.878 202.707 132.698 194.597 146.128C186.747 159.298 179.647 167.918 166.477 175.518C158.367 180.078 152.547 187.168 154.317 192.488C156.087 197.808 164.957 200.598 175.597 196.038C186.747 191.228 196.877 178.808 206.507 161.578C217.907 141.308 226.517 115.978 231.337 69.3582C231.717 65.5782 232.027 61.7682 232.237 57.9683C244.257 73.4283 254.897 101.358 256.047 134.488C251.717 145.588 248.807 156.798 248.057 167.658C247.047 181.588 252.107 187.418 257.937 187.418C264.527 187.668 270.347 179.818 271.867 165.628C272.877 156.958 273.097 147.868 272.597 138.638C282.247 111.558 299.497 86.8283 321.527 64.7983C311.897 92.1582 307.087 121.298 308.357 145.368C309.877 178.048 321.527 198.068 346.107 198.068C355.227 198.068 364.857 194.268 370.427 184.138C373.977 177.808 373.977 168.938 366.877 165.388V165.378Z" fill="black"/>
<path d="M441.867 6.77825C435.027 6.77825 429.957 11.3382 423.117 14.1282C418.047 16.1582 407.667 18.4382 396.767 19.1982C378.777 20.2083 367.627 30.3482 365.857 42.2482C363.827 55.6782 368.897 65.5582 374.217 71.8882C378.267 76.6982 386.887 76.1982 389.927 71.8882C392.967 67.5782 393.217 62.0083 388.657 57.6982C386.127 55.1683 381.567 51.1082 381.567 43.5082C381.567 34.3882 392.717 33.1182 402.337 32.6182C405.027 32.3282 407.837 32.0782 410.687 31.8482C407.397 44.6782 405.787 64.2882 407.907 84.5583C410.947 113.948 423.357 138.778 421.837 163.608C421.077 176.278 414.997 182.858 408.917 182.858C402.837 182.858 399.797 179.818 400.047 171.458C400.297 163.098 392.197 158.788 385.607 162.088C379.527 164.878 378.517 172.478 381.047 179.568C384.597 188.938 393.967 198.058 408.157 198.058C424.627 198.058 438.307 186.148 438.307 163.098C438.307 136.748 426.147 116.478 423.867 85.3182C421.907 58.1582 429.407 44.4683 430.827 29.8682C442.797 28.1483 452.387 24.9583 453.247 17.1583C454.007 9.80825 449.447 6.76825 441.847 6.76825L441.867 6.77825Z" fill="black"/>
<path d="M131.01 429.309C119.86 423.739 113.53 417.399 105.42 406.509C104.42 405.179 103.24 403.709 101.9 402.189C106.28 399.209 110.62 395.349 115.04 390.549C131.51 373.069 141.9 351.279 141.9 321.889C141.9 283.629 116.82 256.269 86.67 256.269C73.34 256.269 62.2 260.499 54.11 267.229C53.76 266.739 53.37 266.299 52.98 265.899C48.67 261.589 41.8301 262.859 34.7401 269.699C15.2301 288.699 0.280029 319.609 0.280029 362.429C0.280029 417.909 31.7 452.879 69.7 452.879C83.82 452.879 99.45 447.859 108.84 439.059C111.58 442.219 114.71 445.329 118.6 448.309C125.69 453.879 138.36 455.909 142.16 447.799C144.69 442.229 140.13 433.869 131.01 429.309ZM69.7 438.179C38.79 438.179 16.75 407.019 16.75 368.509C16.75 339.149 24.56 314.999 39.61 295.479C39.57 296.169 39.55 296.869 39.55 297.569C39.55 315.559 50.95 330.249 63.11 337.349C74 343.679 83.38 339.879 85.4 334.059C87.43 327.979 82.87 322.409 73.4901 320.129C60.5701 316.839 54.7401 309.999 54.7401 295.299C54.7401 282.629 65.13 270.719 84.89 270.719C105.92 270.719 124.16 293.519 124.16 325.439C124.16 347.479 119.85 362.179 105.92 377.879C100.14 384.419 94.67 388.639 88.95 390.869C85.19 388.469 81.02 386.509 76.53 385.479C66.9 383.199 57.53 385.479 55.76 392.319C53.48 400.679 60.57 408.529 70.45 409.799C74.79 410.329 78.93 410.339 82.94 409.769C90.46 413.889 93.64 418.569 97.81 424.239C98.62 425.359 99.41 426.489 100.2 427.619C90.88 435.969 81.19 438.179 69.69 438.179H69.7Z" fill="black"/>
<path d="M892.08 412.259C888.52 380.189 893.16 343.549 896.64 320.619C899.68 300.349 905 289.459 912.6 278.059C917.41 270.709 919.44 260.329 913.87 257.289C909.06 254.499 898.16 258.049 892.08 269.699C885.75 281.859 883.21 295.039 880.43 315.809C878.64 330.349 876.41 352.109 874.86 373.519C861.56 348.419 843.41 321.489 822.35 298.969C821.37 287.659 819.41 277.429 815.83 269.709C812.28 262.619 805.7 259.069 799.36 262.619C793.53 265.909 793.03 273.769 797.08 280.609C804.68 293.529 805.69 308.729 806.96 328.489C808.23 349.259 807.47 379.159 801.64 404.999C799.11 416.149 796.32 426.529 795.05 434.139C793.53 443.509 796.57 452.889 801.64 452.889C809.24 452.889 815.32 444.529 817.35 430.599C820.9 406.789 822.67 368.019 823.18 326.469C823.2 325.159 823.21 323.839 823.21 322.529C845.75 349.519 863.99 379.539 873.11 407.459C872.86 418.159 873.03 427.359 873.85 433.639C875.37 445.289 881.7 452.889 888.29 452.889C893.61 452.889 899.94 447.819 897.92 434.399C896.96 428.079 894.98 420.579 892.09 412.279L892.08 412.259Z" fill="black"/>
<path d="M730.69 256.269C683.57 256.269 662.54 315.549 662.54 361.919C662.54 423.479 690.41 452.869 716.25 452.869C746.15 452.869 769.71 418.669 769.2 366.729C768.69 331.009 753.24 295.289 728.66 295.289C708.39 295.289 699.27 308.719 695.98 321.129C692.94 332.779 696.49 340.129 701.05 341.139C706.88 342.409 713.21 336.329 716.25 326.699C718.02 319.859 718.53 312.009 726.38 312.009C741.33 312.009 751.72 335.569 751.46 365.719C750.95 408.029 739.05 437.669 715.48 437.669C699.01 437.669 680.26 412.329 680.26 362.419C680.26 321.119 695.46 271.469 727.13 271.469C744.36 271.469 754.49 280.079 763.61 307.449C766.14 315.049 772.22 319.359 778.3 317.579C784.63 315.549 787.67 307.699 783.11 296.549C776.02 279.579 759.55 256.269 730.67 256.269H730.69Z" fill="black"/>
<path d="M264.27 258.549C258.19 254.749 251.35 258.299 247.55 265.389C240.2 279.319 237.16 301.369 235.64 322.649C234.06 346.319 234.35 372.929 235.65 395.509C223.59 422.149 209.48 437.669 193.33 437.669C178.13 437.669 169.01 423.479 174.84 404.229C181.43 382.189 187.76 356.849 190.04 314.039C191.05 294.529 190.8 280.089 188.52 271.729C187 266.409 179.4 261.599 173.57 263.619C167.74 265.639 165.72 271.469 167.49 278.059C169.77 286.929 172.05 295.289 172.56 307.449C174.08 350.519 168 370.029 157.36 403.219C148.24 432.359 167.49 452.879 191.06 452.879C211.43 452.879 226.23 442.689 237.86 422.149C238.2 425.179 238.57 428.009 238.94 430.589C240.97 444.519 247.05 452.879 254.65 452.879C260.48 452.879 263.77 443.509 262.25 434.129C260.98 426.529 257.18 416.139 254.65 404.989C248.57 378.129 249.58 345.959 251.86 325.179C253.89 305.669 257.18 289.709 265.79 276.789C270.1 269.949 269.84 262.099 264.27 258.549Z" fill="black"/>
<path d="M975.17 334.809C959.72 324.169 948.82 311.249 948.82 296.299C948.82 281.349 958.95 270.199 973.14 270.199C987.33 270.199 996.95 279.829 995.69 291.729C994.93 298.569 990.88 304.399 985.56 307.439C980.75 310.479 977.96 316.049 980.24 320.609C983.28 326.439 990.63 327.449 997.47 324.159C1007.86 319.089 1012.67 306.679 1012.67 293.249C1012.67 271.459 996.2 256.259 973.15 256.259C950.1 256.259 932.36 273.229 932.36 297.049C932.36 317.569 946.04 332.269 965.55 345.689C986.32 359.879 1000.26 377.609 1000.26 396.869C1000.26 420.679 983.03 437.659 959.98 437.659C939.71 437.659 926.03 421.949 926.03 400.159C926.03 385.209 934.64 368.999 949.08 368.999C954.65 368.999 959.47 371.529 961.75 375.839C963.52 379.129 964.54 383.189 962.51 390.529C960.99 396.359 962.26 400.659 966.31 402.689C971.63 405.219 978.22 400.409 980.24 393.059C985.56 373.299 971.12 355.059 949.58 355.059C928.04 355.059 909.55 374.819 909.55 399.649C909.55 428.529 929.56 452.849 959.21 452.849C992.91 452.849 1016.72 429.539 1016.72 396.349C1016.72 368.479 999.49 352.009 975.17 334.789V334.809Z" fill="black"/>
<path d="M633.91 256.519C625.04 256.519 619.72 260.069 613.64 264.119C607.31 268.169 600.47 271.969 588.3 271.969C577.66 271.969 546.75 266.399 538.14 265.889C521.42 264.879 512.3 268.679 511.03 276.529C510.27 281.089 515.59 287.679 519.39 287.679C524.2 287.679 531.3 283.879 536.87 283.369C540.55 282.959 545.64 282.959 551.18 283.169C547.6 293.659 544.48 310.829 544.48 328.719C544.48 366.979 558.41 389.779 558.41 417.139C558.41 431.829 551.06 437.659 544.98 437.659C538.9 437.659 535.35 433.609 536.11 426.259C536.62 418.909 530.03 414.859 524.46 415.869C515.59 417.139 514.83 427.019 516.35 432.839C519.14 441.709 529.02 452.849 543.21 452.849C561.96 452.849 574.37 440.939 574.37 416.369C574.37 389.009 561.2 376.339 561.2 326.179C561.2 305.419 569.83 294.309 571.54 284.539C579.49 285.229 585.9 285.899 587.54 285.899C616.68 285.899 646.82 279.059 646.82 264.369C646.82 259.559 641.75 256.519 633.9 256.519H633.91Z" fill="black"/>
<path d="M631.12 312.769C632.13 306.689 628.33 300.099 622.25 300.099C614.9 300.099 609.08 307.449 609.08 320.369C609.08 369.769 625.8 389.279 625.8 416.139C625.8 429.569 618.96 437.669 611.61 437.669C606.29 437.669 603.25 433.619 602.49 429.059C601.73 423.989 595.65 420.949 590.84 423.489C584 427.039 585.52 435.139 588.56 440.459C592.87 448.059 603.25 452.869 614.4 452.869C629.35 452.869 641 439.189 641 416.129C641 389.529 626.56 370.779 626.56 337.079C626.56 326.949 629.85 319.349 631.12 312.759V312.769Z" fill="black"/>
<path d="M346.1 256.269C313.42 256.269 288.59 281.859 288.59 314.539C288.59 329.249 294.72 346.079 305.62 357.369C290.63 366.549 280.23 383.179 280.23 404.229C280.23 430.579 298.47 452.869 328.87 452.869C356.99 452.869 374.22 435.389 378.02 414.109C381.06 396.119 376.75 377.629 365.86 371.799C360.54 369.009 354.97 370.529 352.18 374.589C348.89 379.399 351.93 385.229 355.22 388.519C360.03 393.329 363.33 400.429 361.05 412.079C357.76 429.309 341.8 437.669 329.38 437.669C309.62 437.669 297.96 422.469 297.96 403.469C297.96 388.169 304.53 373.529 322.7 368.409C326.37 369.619 330.29 370.289 334.44 370.289C343.81 370.289 348.37 364.719 348.37 360.159C348.37 355.089 344.57 349.519 333.68 349.519C330.19 349.519 326.75 349.859 323.4 350.499C311.84 343.289 306.32 327.909 306.32 315.569C306.32 291.249 325.32 270.219 346.1 270.219C366.88 270.219 377.77 283.649 377.77 299.359C377.77 310.759 374.48 316.839 364.34 320.639C357.5 322.919 354.71 328.999 355.98 333.559C358.01 340.149 366.11 341.919 372.7 339.129C386.63 333.049 395.5 318.359 395.5 301.129C395.5 275.289 375.74 256.289 346.1 256.289V256.269Z" fill="black"/>
<path d="M468.47 335.569C445.42 321.129 437.05 310.739 437.05 291.989C437.05 280.339 446.68 270.199 460.36 270.199C474.8 270.199 484.17 279.829 482.91 291.729C482.15 298.569 478.1 301.859 472.78 304.899C467.97 307.939 465.18 313.509 467.46 318.069C470.5 323.899 477.85 324.909 484.69 321.619C493.81 317.059 499.89 306.669 499.89 293.239C499.89 271.449 483.42 256.249 460.37 256.249C437.32 256.249 419.58 271.959 419.58 294.509C419.58 317.059 431.23 330.229 452.77 344.929C477.35 361.649 487.48 373.809 487.48 396.869C487.48 419.929 470.25 437.659 447.2 437.659C427.19 437.659 413.76 421.949 413.76 400.159C413.76 385.209 421.61 368.999 434.28 368.999C444.41 368.999 450.24 377.109 447.2 389.009C445.68 394.839 448.21 400.409 452.52 401.679C457.33 403.199 464.68 396.869 466.2 389.519C470.25 368.489 455.56 355.059 434.78 355.059C414 355.059 396.02 373.809 396.02 398.379C396.02 426.499 416.29 452.849 446.44 452.849C480.9 452.849 505.22 429.539 505.22 396.349C505.22 367.969 491.54 349.989 468.48 335.549L468.47 335.569Z" fill="black"/>
</svg>
